# xmcd
#
# Track frame offsets: 
#        182
#        22402
#        38950
#        55922
#        73027
#        101310
#        115957
#        131575
#        150330
#        172857
#        193447
#        211405
#        239990
#        255240
#
# Disc length: 3579 seconds
#
# Revision: 5
# Processed by: cddbd v1.5.2PL0 Copyright (c) Steve Scherf et al.
# Submitted via: ExactAudioCopy v0.99pb5
#
DISCID=ca0df90e
DTITLE=Soul Music Collection - 9. - Disco Revolution
DYEAR=1996
DGENRE=Disco
TTITLE0=Kool and The Gang - Get Down On It
TTITLE1=Thelma Houston - Don't Leave Me This Way
TTITLE2=Van McCoy and The Soul City Simphony - The Hustle
TTITLE3=Donna Summer - I Feel Love
TTITLE4=Barry White - Let The Music Play
TTITLE5=Gloria Gaynor - I Will Survive
TTITLE6=Joe Tex - Ain't Gonna Bump No More
TTITLE7=Barry White - Love Unlimited Orchestra - Love's Theme
TTITLE8=Kool and The Gang - Celebration
TTITLE9=Barry White - You're The First, The Last, My Everything
TTITLE10=L.T.D. - Holding On (When Love Is Gone)
TTITLE11=Gloria Gaynor - Never Can Say Goodbye
TTITLE12=Donna Summer - Love To Love You Baby
TTITLE13=Ritchie Family - Brazil
EXTD=by David K. (Opatija City) - Croatia
EXTT0=
EXTT1=
EXTT2=
EXTT3=
EXTT4=
EXTT5=
EXTT6=
EXTT7=
EXTT8=
EXTT9=
EXTT10=
EXTT11=
EXTT12=
EXTT13=
PLAYORDER=
